HIERARCHY
ROOT hip
{
  OFFSET 17.4988 82.9666 36.0543
  CHANNELS 6 Xposition Yposition Zposition Zrotation Xrotation Yrotation
  JOINT abdomen
  {
    OFFSET 0 20.6881 -0.73152
    CHANNELS 3 Zrotation Xrotation Yrotation
    JOINT chest
    {
      OFFSET 0 11.7043 -0.48768
      CHANNELS 3 Zrotation Xrotation Yrotation
      JOINT neck
      {
        OFFSET 0 22.1894 -2.19456
        CHANNELS 3 Zrotation Xrotation Yrotation
        JOINT head
        {
          OFFSET -0.24384 7.07133 1.2192
          CHANNELS 3 Zrotation Xrotation Yrotation
          JOINT leftEye
          {
            OFFSET 4.14528 8.04674 8.04672
            CHANNELS 3 Zrotation Xrotation Yrotation
            End Site
            {
              OFFSET 1 0 0
            }
          }
          JOINT rightEye
          {
            OFFSET -3.6576 8.04674 8.04672
            CHANNELS 3 Zrotation Xrotation Yrotation
            End Site
            {
              OFFSET 1 0 0
            }
          }
        }
      }
      JOINT rCollar
      {
        OFFSET -2.68224 19.2634 -4.8768
        CHANNELS 3 Zrotation Xrotation Yrotation
        JOINT rShldr
        {
          OFFSET -8.77824 -1.95073 1.46304
          CHANNELS 3 Zrotation Xrotation Yrotation
          JOINT rForeArm
          {
            OFFSET -28.1742 -1.7115 0.48768
            CHANNELS 3 Zrotation Xrotation Yrotation
            JOINT rHand
            {
              OFFSET -22.5879 0.773209 7.07136
              CHANNELS 3 Zrotation Xrotation Yrotation
              JOINT rThumb1
              {
                OFFSET -1.2192 -0.487915 3.41376
                CHANNELS 3 Zrotation Xrotation Yrotation
                JOINT rThumb2
                {
                  OFFSET -3.37035 -0.52449 3.41376
                  CHANNELS 3 Zrotation Xrotation Yrotation
                  End Site
                  {
                    OFFSET -1.78271 -1.18214 1.43049
                  }
                }
              }
              JOINT rIndex1
              {
                OFFSET -7.75947 0.938293 5.60832
                CHANNELS 3 Zrotation Xrotation Yrotation
                JOINT rIndex2
                {
                  OFFSET -2.54057 -0.884171 1.56538
                  CHANNELS 3 Zrotation Xrotation Yrotation
                  End Site
                  {
                    OFFSET -1.62519 -0.234802 1.16502
                  }
                }
              }
              JOINT rMid1
              {
                OFFSET -8.24714 1.18213 3.41376
                CHANNELS 3 Zrotation Xrotation Yrotation
                JOINT rMid2
                {
                  OFFSET -3.10165 -0.590103 1.0647
                  CHANNELS 3 Zrotation Xrotation Yrotation
                  End Site
                  {
                    OFFSET -2.48547 -0.328903 0.83742
                  }
                }
              }
              JOINT rRing1
              {
                OFFSET -8.82822 0.546677 1.51678
                CHANNELS 3 Zrotation Xrotation Yrotation
                JOINT rRing2
                {
                  OFFSET -2.60934 -0.819778 -0.0198488
                  CHANNELS 3 Zrotation Xrotation Yrotation
                  End Site
                  {
                    OFFSET -2.33842 -0.294052 0.168128
                  }
                }
              }
              JOINT rPinky1
              {
                OFFSET -8.27202 -0.0477905 -0.4584
                CHANNELS 3 Zrotation Xrotation Yrotation
                JOINT rPinky2
                {
                  OFFSET -1.82734 -0.647385 -0.700984
                  CHANNELS 3 Zrotation Xrotation Yrotation
                  End Site
                  {
                    OFFSET -1.69225 -0.51767 -0.607171
                  }
                }
              }
            }
          }
        }
      }
      JOINT lCollar
      {
        OFFSET 2.68224 19.2634 -4.8768
        CHANNELS 3 Zrotation Xrotation Yrotation
        JOINT lShldr
        {
          OFFSET 8.77824 -1.95073 1.46304
          CHANNELS 3 Zrotation Xrotation Yrotation
          JOINT lForeArm
          {
            OFFSET 28.1742 -1.7115 0.48768
            CHANNELS 3 Zrotation Xrotation Yrotation
            JOINT lHand
            {
              OFFSET 22.5879 0.773209 7.07136
              CHANNELS 3 Zrotation Xrotation Yrotation
              JOINT lThumb1
              {
                OFFSET 1.2192 -0.487915 3.41376
                CHANNELS 3 Zrotation Xrotation Yrotation
                JOINT lThumb2
                {
                  OFFSET 3.37035 -0.52449 3.41376
                  CHANNELS 3 Zrotation Xrotation Yrotation
                  End Site
                  {
                    OFFSET 1.78271 -1.18214 1.43049
                  }
                }
              }
              JOINT lIndex1
              {
                OFFSET 7.75947 0.938293 5.60832
                CHANNELS 3 Zrotation Xrotation Yrotation
                JOINT lIndex2
                {
                  OFFSET 2.54057 -0.884171 1.56538
                  CHANNELS 3 Zrotation Xrotation Yrotation
                  End Site
                  {
                    OFFSET 1.62519 -0.234802 1.16502
                  }
                }
              }
              JOINT lMid1
              {
                OFFSET 8.24714 1.18213 3.41376
                CHANNELS 3 Zrotation Xrotation Yrotation
                JOINT lMid2
                {
                  OFFSET 3.10165 -0.590103 1.0647
                  CHANNELS 3 Zrotation Xrotation Yrotation
                  End Site
                  {
                    OFFSET 2.48547 -0.328903 0.83742
                  }
                }
              }
              JOINT lRing1
              {
                OFFSET 8.82822 0.546677 1.51678
                CHANNELS 3 Zrotation Xrotation Yrotation
                JOINT lRing2
                {
                  OFFSET 2.60934 -0.819778 -0.0198488
                  CHANNELS 3 Zrotation Xrotation Yrotation
                  End Site
                  {
                    OFFSET 2.33842 -0.294052 0.168128
                  }
                }
              }
              JOINT lPinky1
              {
                OFFSET 8.27202 -0.0477905 -0.4584
                CHANNELS 3 Zrotation Xrotation Yrotation
                JOINT lPinky2
                {
                  OFFSET 1.82734 -0.647385 -0.700984
                  CHANNELS 3 Zrotation Xrotation Yrotation
                  End Site
                  {
                    OFFSET 1.69225 -0.51767 -0.607171
                  }
                }
              }
            }
          }
        }
      }
    }
  }
  JOINT rButtock
  {
    OFFSET -8.77824 4.35084 1.2192
    CHANNELS 3 Zrotation Xrotation Yrotation
    JOINT rThigh
    {
      OFFSET 0 -1.70687 -2.19456
      CHANNELS 3 Zrotation Xrotation Yrotation
      JOINT rShin
      {
        OFFSET 0 -36.8199 0.73152
        CHANNELS 3 Zrotation Xrotation Yrotation
        JOINT rFoot
        {
          OFFSET 0.73152 -45.1104 -5.12064
          CHANNELS 3 Zrotation Xrotation Yrotation
          End Site
          {
            OFFSET -1.1221 -3.69964 12.103
          }
        }
      }
    }
  }
  JOINT lButtock
  {
    OFFSET 8.77824 4.35084 1.2192
    CHANNELS 3 Zrotation Xrotation Yrotation
    JOINT lThigh
    {
      OFFSET 0 -1.70687 -2.19456
      CHANNELS 3 Zrotation Xrotation Yrotation
      JOINT lShin
      {
        OFFSET 0 -36.8199 0.73152
        CHANNELS 3 Zrotation Xrotation Yrotation
        JOINT lFoot
        {
          OFFSET -0.73152 -45.1104 -5.12064
          CHANNELS 3 Zrotation Xrotation Yrotation
          End Site
          {
            OFFSET 1.1221 -3.69964 12.103
          }
        }
      }
    }
  }
}
MOTION
Frames:	6
Frame Time:	0.00833333
-0.248162 140.187 -51.7256 -1.13274 0.201616 -135.441 -2.10333 9.2639 4.81735 -0.425933 -3.29836 1.32176 -5.49109 7.13312 2.17099 10.8114 -21.4026 7.20847 -0 0 0 -0 0 0 -2.82675e-014 2.58365e-014 4.07349e-013 70.5692 36.6463 5.38538 -16.25 -8.92148 30.2021 -0.252807 14.1706 2.03361 -7.85377e-010 -6.2873e-010 7.67917e-011 -1.35584e-009 -1.09929e-009 1.42584e-010 -7.85371e-010 -6.28733e-010 7.67839e-011 7.73091 5.47488 0.417314 -7.85376e-010 -6.28734e-010 7.67943e-011 2.90554 0.965183 0.102902 -7.85372e-010 -6.28732e-010 7.67946e-011 10.2786 0.731801 0.0259123 -7.85378e-010 -6.28731e-010 7.68056e-011 2.22167 -0.733487 -0.20892 -2.83278e-014 2.58376e-014 4.07168e-013 -80.051 10.322 -0.535603 12.1114 -5.52703 -21.8258 9.52541e-005 -0.237869 0.0334221 -9.54865e-010 -5.92762e-010 1.6561e-009 -1.65175e-009 -1.02645e-009 2.86809e-009 -9.54868e-010 -5.92762e-010 1.6561e-009 -7.73091 5.47488 -0.417314 -9.54867e-010 -5.92764e-010 1.65609e-009 -2.90554 0.965183 -0.102902 -9.54874e-010 -5.92761e-010 1.6561e-009 -10.2786 0.731801 -0.0259123 -9.54861e-010 -5.9276e-010 1.65609e-009 -2.22167 -0.733487 0.20892 -2.03217e-016 0 -3.88251e-019 6.34845 -10.7209 6.39802 -0.106649 32.0737 0.898975 -14.2987 -20.5395 -31.0745 2.03217e-016 0 3.88251e-019 9.41689 -19.0083 27.9796 0.301352 40.6002 -1.04783 10.5264 -17.635 24.4965 
-0.342751 140.161 -51.7876 -1.06232 0.37713 -134.546 -1.86674 9.18305 4.74863 -0.536439 -3.32558 1.30672 -5.51279 7.06233 2.15389 10.7556 -21.0256 7.13289 -0 0 0 -0 0 0 -4.07904e-015 6.61804e-014 8.75895e-014 70.5874 36.3947 5.35488 -16.2737 -8.94394 30.2527 -0.248988 14.0657 2.01792 -1.3431e-010 -4.61386e-010 1.5938e-010 -2.30117e-010 -7.99955e-010 2.77585e-010 -1.34304e-010 -4.61388e-010 1.59371e-010 7.73091 5.47488 0.417314 -1.3431e-010 -4.61391e-010 1.59387e-010 2.90554 0.965183 0.102902 -1.34304e-010 -4.61387e-010 1.59382e-010 10.2786 0.731801 0.0259123 -1.34312e-010 -4.61385e-010 1.59392e-010 2.22167 -0.733487 -0.20892 -4.14908e-015 6.61846e-014 8.7428e-014 -80.0698 10.0114 -0.430005 11.9648 -5.42304 -21.543 0.000364328 0.107828 -0.0151766 -3.12203e-010 -2.69127e-010 1.02801e-009 -5.40318e-010 -4.66233e-010 1.77947e-009 -3.12208e-010 -2.69131e-010 1.02801e-009 -7.73091 5.47488 -0.417314 -3.12206e-010 -2.69133e-010 1.028e-009 -2.90554 0.965183 -0.102902 -3.12212e-010 -2.6913e-010 1.02801e-009 -10.2786 0.731801 -0.0259123 -3.122e-010 -2.69128e-010 1.028e-009 -2.22167 -0.733487 0.20892 -2.03217e-016 0 -3.88251e-019 6.53507 -10.4604 6.16107 -0.103933 31.9791 0.90814 -14.6858 -20.5798 -31.758 2.03217e-016 0 3.88251e-019 9.40211 -18.9876 28.1198 0.299651 40.4201 -1.0317 10.3215 -17.0593 24.5536 
-0.436654 140.133 -51.8161 -0.983366 0.566184 -133.642 -1.60922 9.09575 4.68104 -0.651312 -3.36087 1.29256 -5.54138 6.99706 2.129 10.7139 -20.6402 7.04432 -0 0 0 -0 0 0 1.92836e-014 1.00368e-013 -2.16268e-013 70.6244 36.1129 5.29688 -16.2984 -8.96733 30.3051 -0.245155 13.9599 2.00211 4.81687e-010 -2.80277e-010 2.17152e-010 8.34693e-010 -4.7752e-010 3.70114e-010 4.81693e-010 -2.80277e-010 2.17141e-010 7.73091 5.47488 0.417314 4.81686e-010 -2.80282e-010 2.17163e-010 2.90554 0.965183 0.102902 4.81695e-010 -2.80276e-010 2.17152e-010 10.2786 0.731801 0.0259123 4.81685e-010 -2.80273e-010 2.17161e-010 2.22167 -0.733487 -0.20892 1.92046e-014 1.00376e-013 -2.16415e-013 -80.0887 9.62501 -0.330513 11.7923 -5.3028 -21.2104 0.000809176 0.522726 -0.0734908 2.84394e-010 -2.30028e-011 4.46699e-010 4.91215e-010 -4.01945e-011 7.71758e-010 2.84388e-010 -2.30106e-011 4.46701e-010 -7.73091 5.47488 -0.417314 2.84391e-010 -2.30112e-011 4.46691e-010 -2.90554 0.965183 -0.102902 2.84386e-010 -2.30098e-011 4.46695e-010 -10.2786 0.731801 -0.0259123 2.84396e-010 -2.30063e-011 4.46689e-010 -2.22167 -0.733487 0.20892 -2.03217e-016 0 -3.88251e-019 6.74244 -10.1851 5.9316 -0.100988 31.8654 0.91672 -15.0739 -20.6237 -32.4314 2.03217e-016 0 3.88251e-019 9.34898 -18.9614 28.0977 0.297159 40.2162 -1.01816 10.1789 -16.6255 24.6261 
-0.546622 140.131 -51.8464 -0.913528 0.760759 -132.738 -1.38 8.99885 4.59875 -0.70442 -3.36164 1.27533 -5.5791 6.93437 2.10289 10.6627 -20.2892 6.95729 -0 0 0 -0 0 0 3.7786e-014 1.06941e-013 -4.45178e-013 70.5981 35.8282 5.2729 -16.3279 -8.99542 30.3679 -0.241035 13.8454 1.98502 9.30163e-010 -1.30425e-010 2.73286e-010 1.61005e-009 -2.11761e-010 4.61894e-010 9.30169e-010 -1.30423e-010 2.73273e-010 7.73091 5.47488 0.417314 9.3016e-010 -1.3043e-010 2.73299e-010 2.90554 0.965183 0.102902 9.30171e-010 -1.30422e-010 2.73284e-010 10.2786 0.731801 0.0259123 9.3016e-010 -1.30419e-010 2.73292e-010 2.22167 -0.733487 -0.20892 3.77049e-014 1.0695e-013 -4.45327e-013 -80.143 9.1047 -0.281709 11.5865 -5.16283 -20.8125 0.00128705 1.02433 -0.143976 7.46862e-010 1.09001e-010 -5.44797e-011 1.29041e-009 1.88368e-010 -9.69767e-011 7.46855e-010 1.08991e-010 -5.44765e-011 -7.73091 5.47488 -0.417314 7.46859e-010 1.0899e-010 -5.44861e-011 -2.90554 0.965183 -0.102902 7.46855e-010 1.08991e-010 -5.44837e-011 -10.2786 0.731801 -0.0259123 7.46865e-010 1.08995e-010 -5.44893e-011 -2.22167 -0.733487 0.20892 -2.03217e-016 0 -3.88251e-019 6.94972 -9.89614 5.71585 -0.0978965 31.7353 0.924497 -15.4384 -20.7067 -33.0142 2.03217e-016 0 3.88251e-019 9.25882 -18.929 27.924 0.293354 40.0002 -1.01231 10.1969 -16.505 24.7742 
-0.658817 140.126 -51.8623 -0.839612 0.985625 -131.83 -1.15274 8.89011 4.48947 -0.671018 -3.31261 1.25301 -5.6147 6.87599 2.06477 10.5452 -19.9948 6.84166 -0 0 0 -0 0 0 5.05011e-014 7.00273e-014 -5.85799e-013 70.4695 35.5445 5.29875 -16.3674 -9.03316 30.452 -0.236191 13.7097 1.96479 1.15749e-009 -3.98908e-011 3.51919e-010 2.00355e-009 -5.20957e-011 5.95405e-010 1.1575e-009 -3.98879e-011 3.51906e-010 7.73091 5.47488 0.417314 1.15749e-009 -3.98949e-011 3.51932e-010 2.90554 0.965183 0.102902 1.1575e-009 -3.98866e-011 3.51917e-010 10.2786 0.731801 0.0259123 1.15749e-009 -3.98841e-011 3.51925e-010 2.22167 -0.733487 -0.20892 5.0432e-014 7.00365e-014 -5.85974e-013 -80.2672 8.3369 -0.305845 11.3267 -4.98968 -20.3107 0.00236285 1.7145 -0.240972 1.05105e-009 8.15782e-011 -4.77218e-010 1.8151e-009 1.41114e-010 -8.29622e-010 1.05105e-009 8.15683e-011 -4.77212e-010 -7.73091 5.47488 -0.417314 1.05105e-009 8.15676e-011 -4.77222e-010 -2.90554 0.965183 -0.102902 1.05105e-009 8.15672e-011 -4.77223e-010 -10.2786 0.731801 -0.0259123 1.05106e-009 8.15713e-011 -4.7723e-010 -2.22167 -0.733487 0.20892 -2.03217e-016 0 -3.88251e-019 7.18636 -9.57443 5.51957 -0.094243 31.5618 0.930796 -15.774 -20.8495 -33.4795 2.03217e-016 0 3.88251e-019 9.15401 -18.8993 27.5653 0.2877 39.7921 -1.01954 10.4808 -16.8734 25.0627 
-0.744617 140.12 -51.894 -0.760322 1.23313 -130.916 -0.914577 8.77166 4.36436 -0.588693 -3.2378 1.22804 -5.65099 6.82264 2.01533 10.3909 -19.7303 6.70102 -0 0 0 -0 0 0 5.95311e-014 4.45452e-015 -6.6882e-013 70.2887 35.2482 5.34154 -16.4134 -9.07714 30.55 -0.230932 13.5605 1.94256 1.24042e-009 2.06893e-011 4.34704e-010 2.14755e-009 5.34033e-011 7.37945e-010 1.24042e-009 2.06937e-011 4.34692e-010 7.73091 5.47488 0.417314 1.24041e-009 2.06864e-011 4.34717e-010 2.90554 0.965183 0.102902 1.24043e-009 2.0695e-011 4.34702e-010 10.2786 0.731801 0.0259123 1.24041e-009 2.06962e-011 4.3471e-010 2.22167 -0.733487 -0.20892 5.94826e-014 4.46245e-015 -6.69038e-013 -80.4367 7.38532 -0.375352 11.0208 -4.78824 -19.7253 0.00602007 2.55147 -0.358727 1.24416e-009 -7.38976e-011 -8.35777e-010 2.1471e-009 -1.27713e-010 -1.45103e-009 1.24415e-009 -7.39058e-011 -8.35767e-010 -7.73091 5.47488 -0.417314 1.24415e-009 -7.39072e-011 -8.35779e-010 -2.90554 0.965183 -0.102902 1.24415e-009 -7.39087e-011 -8.35783e-010 -10.2786 0.731801 -0.0259123 1.24416e-009 -7.39052e-011 -8.35794e-010 -2.22167 -0.733487 0.20892 -2.03217e-016 0 -3.88251e-019 7.45183 -9.2259 5.33811 -0.0901235 31.3527 0.935945 -16.0939 -21.0305 -33.8728 2.03217e-016 0 3.88251e-019 9.02756 -18.8676 27.0282 0.280406 39.5802 -1.03566 10.9609 -17.5921 25.4481 
